<mxfile host="app.diagrams.net" modified="2022-11-29T22:47:49.985Z" agent="5.0 (Windows NT 10.0; Win64; x64) AppleWebKit/537.36 (KHTML, like Gecko) Chrome/107.0.0.0 Safari/537.36" etag="JrxZkglnYkavDQMti1nq" version="20.4.2" type="github">
  <diagram id="3228e29e-7158-1315-38df-8450db1d8a1d" name="Page-1">
    <mxGraphModel dx="920" dy="1353" grid="1" gridSize="10" guides="1" tooltips="1" connect="1" arrows="1" fold="1" page="1" pageScale="1" pageWidth="1169" pageHeight="827" background="none" math="0" shadow="0">
      <root>
        <mxCell id="0" />
        <mxCell id="1" parent="0" />
        <mxCell id="21531" value="" style="ellipse;fillColor=#97D077;opacity=60;strokeColor=none;html=1;fontColor=#FFFFFF;" parent="1" vertex="1">
          <mxGeometry x="339.5" y="308.5" width="500" height="500" as="geometry" />
        </mxCell>
        <mxCell id="21532" value="" style="ellipse;fillColor=#F19C99;opacity=60;strokeColor=none;html=1;fontColor=#FFFFFF;" parent="1" vertex="1">
          <mxGeometry x="179.5" y="18.5" width="500" height="500" as="geometry" />
        </mxCell>
        <mxCell id="21533" value="" style="ellipse;fillColor=#7EA6E0;opacity=60;strokeColor=none;html=1;fontColor=#FFFFFF;" parent="1" vertex="1">
          <mxGeometry x="489.5" y="18.5" width="500" height="500" as="geometry" />
        </mxCell>
        <mxCell id="21534" value="Seguridad" style="text;fontSize=42;align=center;verticalAlign=middle;html=1;fontColor=#FFFFFF;" parent="1" vertex="1">
          <mxGeometry x="240" y="190" width="190" height="70" as="geometry" />
        </mxCell>
        <mxCell id="21535" value="Comunicaci贸n" style="text;fontSize=42;align=center;verticalAlign=middle;html=1;fontColor=#FFFFFF;" parent="1" vertex="1">
          <mxGeometry x="739.5" y="190" width="190" height="70" as="geometry" />
        </mxCell>
        <mxCell id="21536" value="Sustentabilidad" style="text;fontSize=46;align=center;verticalAlign=middle;html=1;fontColor=#FFFFFF;" parent="1" vertex="1">
          <mxGeometry x="499.5" y="580" width="190" height="70" as="geometry" />
        </mxCell>
        <mxCell id="21537" value="Seguridad&lt;br style=&quot;font-size: 22px;&quot;&gt;+&lt;br style=&quot;font-size: 22px;&quot;&gt;Comunicaci贸n" style="text;align=center;html=1;fontColor=#FFFFFF;fontSize=22;" parent="1" vertex="1">
          <mxGeometry x="564.5" y="180" width="40" height="40" as="geometry" />
        </mxCell>
        <mxCell id="21538" value="Seguridad&lt;br style=&quot;font-size: 22px;&quot;&gt;+&lt;br style=&quot;font-size: 22px;&quot;&gt;Sustentabilidad" style="text;align=center;html=1;fontColor=#FFFFFF;fontSize=22;" parent="1" vertex="1">
          <mxGeometry x="440" y="393" width="40" height="40" as="geometry" />
        </mxCell>
        <mxCell id="21539" value="Comunicaci贸n&lt;br style=&quot;font-size: 22px;&quot;&gt;+&lt;br style=&quot;font-size: 22px;&quot;&gt;Sustentabilidad" style="text;align=center;html=1;fontColor=#FFFFFF;fontSize=22;" parent="1" vertex="1">
          <mxGeometry x="692.5" y="393" width="40" height="40" as="geometry" />
        </mxCell>
        <mxCell id="21540" value="Intersecci贸n&lt;br style=&quot;font-size: 20px;&quot;&gt;Total" style="text;align=center;html=1;fontColor=#FFFFFF;fontSize=20;" parent="1" vertex="1">
          <mxGeometry x="565" y="340" width="40" height="40" as="geometry" />
        </mxCell>
      </root>
    </mxGraphModel>
  </diagram>
</mxfile>
